<mxfile host="Electron" agent="Mozilla/5.0 (Windows NT 10.0; Win64; x64) AppleWebKit/537.36 (KHTML, like Gecko) draw.io/27.0.5 Chrome/134.0.6998.205 Electron/35.3.0 Safari/537.36" version="27.0.5">
  <diagram name="Seite-1" id="87DErBvkUcCOlzU4tNSq">
    <mxGraphModel dx="1489" dy="894" grid="1" gridSize="10" guides="1" tooltips="1" connect="1" arrows="1" fold="1" page="1" pageScale="1" pageWidth="1169" pageHeight="1654" math="0" shadow="0">
      <root>
        <mxCell id="0" />
        <mxCell id="1" parent="0" />
        <mxCell id="awXcuc5pf5VlumgJA9pQ-5" value="PersistenceManager" style="shape=module;align=left;spacingLeft=20;align=center;verticalAlign=top;whiteSpace=wrap;html=1;" vertex="1" parent="1">
          <mxGeometry x="430" y="1220" width="240" height="260" as="geometry" />
        </mxCell>
        <mxCell id="awXcuc5pf5VlumgJA9pQ-6" value="HardwareAbstraction" style="shape=module;align=left;spacingLeft=20;align=center;verticalAlign=top;whiteSpace=wrap;html=1;" vertex="1" parent="1">
          <mxGeometry x="150" y="800" width="850" height="290" as="geometry" />
        </mxCell>
        <mxCell id="awXcuc5pf5VlumgJA9pQ-7" value="BatteryLogic" style="shape=module;align=left;spacingLeft=20;align=center;verticalAlign=top;whiteSpace=wrap;html=1;" vertex="1" parent="1">
          <mxGeometry x="150" y="400" width="850" height="280" as="geometry" />
        </mxCell>
        <mxCell id="awXcuc5pf5VlumgJA9pQ-8" value="UserInterface" style="shape=module;align=left;spacingLeft=20;align=center;verticalAlign=top;whiteSpace=wrap;html=1;" vertex="1" parent="1">
          <mxGeometry x="370" y="40" width="350" height="230" as="geometry" />
        </mxCell>
        <mxCell id="awXcuc5pf5VlumgJA9pQ-9" value="DisplayOutputController" style="swimlane;fontStyle=1;align=center;verticalAlign=top;childLayout=stackLayout;horizontal=1;startSize=26;horizontalStack=0;resizeParent=1;resizeParentMax=0;resizeLast=0;collapsible=1;marginBottom=0;whiteSpace=wrap;html=1;" vertex="1" parent="1">
          <mxGeometry x="400" y="90" width="300" height="150" as="geometry" />
        </mxCell>
        <mxCell id="awXcuc5pf5VlumgJA9pQ-10" value="- showPercentage: boolean&lt;div&gt;- showRemainingTime: boolean&lt;/div&gt;" style="text;strokeColor=none;fillColor=none;align=left;verticalAlign=top;spacingLeft=4;spacingRight=4;overflow=hidden;rotatable=0;points=[[0,0.5],[1,0.5]];portConstraint=eastwest;whiteSpace=wrap;html=1;" vertex="1" parent="awXcuc5pf5VlumgJA9pQ-9">
          <mxGeometry y="26" width="300" height="44" as="geometry" />
        </mxCell>
        <mxCell id="awXcuc5pf5VlumgJA9pQ-11" value="" style="line;strokeWidth=1;fillColor=none;align=left;verticalAlign=middle;spacingTop=-1;spacingLeft=3;spacingRight=3;rotatable=0;labelPosition=right;points=[];portConstraint=eastwest;strokeColor=inherit;" vertex="1" parent="awXcuc5pf5VlumgJA9pQ-9">
          <mxGeometry y="70" width="300" height="8" as="geometry" />
        </mxCell>
        <mxCell id="awXcuc5pf5VlumgJA9pQ-12" value="+ updateDisplay(): void&lt;div&gt;+ showPercentage(percent: int): void&lt;/div&gt;&lt;div&gt;+ showRemainingTime(minutes: int): void&lt;/div&gt;&lt;div&gt;+ showLowBatteryWarning(): void&lt;/div&gt;" style="text;strokeColor=none;fillColor=none;align=left;verticalAlign=top;spacingLeft=4;spacingRight=4;overflow=hidden;rotatable=0;points=[[0,0.5],[1,0.5]];portConstraint=eastwest;whiteSpace=wrap;html=1;" vertex="1" parent="awXcuc5pf5VlumgJA9pQ-9">
          <mxGeometry y="78" width="300" height="72" as="geometry" />
        </mxCell>
        <mxCell id="awXcuc5pf5VlumgJA9pQ-13" value="InteractionHandler" style="swimlane;fontStyle=1;align=center;verticalAlign=top;childLayout=stackLayout;horizontal=1;startSize=26;horizontalStack=0;resizeParent=1;resizeParentMax=0;resizeLast=0;collapsible=1;marginBottom=0;whiteSpace=wrap;html=1;" vertex="1" parent="1">
          <mxGeometry x="200" y="480" width="180" height="120" as="geometry" />
        </mxCell>
        <mxCell id="awXcuc5pf5VlumgJA9pQ-14" value="- pressCount: int&lt;div&gt;- lastPressTimestamp: long&lt;/div&gt;" style="text;strokeColor=none;fillColor=none;align=left;verticalAlign=top;spacingLeft=4;spacingRight=4;overflow=hidden;rotatable=0;points=[[0,0.5],[1,0.5]];portConstraint=eastwest;whiteSpace=wrap;html=1;" vertex="1" parent="awXcuc5pf5VlumgJA9pQ-13">
          <mxGeometry y="26" width="180" height="44" as="geometry" />
        </mxCell>
        <mxCell id="awXcuc5pf5VlumgJA9pQ-15" value="" style="line;strokeWidth=1;fillColor=none;align=left;verticalAlign=middle;spacingTop=-1;spacingLeft=3;spacingRight=3;rotatable=0;labelPosition=right;points=[];portConstraint=eastwest;strokeColor=inherit;" vertex="1" parent="awXcuc5pf5VlumgJA9pQ-13">
          <mxGeometry y="70" width="180" height="8" as="geometry" />
        </mxCell>
        <mxCell id="awXcuc5pf5VlumgJA9pQ-16" value="+ handleButtonPress(): void&lt;div&gt;+ triggerDisplayUpdate(): void&lt;/div&gt;" style="text;strokeColor=none;fillColor=none;align=left;verticalAlign=top;spacingLeft=4;spacingRight=4;overflow=hidden;rotatable=0;points=[[0,0.5],[1,0.5]];portConstraint=eastwest;whiteSpace=wrap;html=1;" vertex="1" parent="awXcuc5pf5VlumgJA9pQ-13">
          <mxGeometry y="78" width="180" height="42" as="geometry" />
        </mxCell>
        <mxCell id="awXcuc5pf5VlumgJA9pQ-17" value="CalibrationManager" style="swimlane;fontStyle=1;align=center;verticalAlign=top;childLayout=stackLayout;horizontal=1;startSize=26;horizontalStack=0;resizeParent=1;resizeParentMax=0;resizeLast=0;collapsible=1;marginBottom=0;whiteSpace=wrap;html=1;" vertex="1" parent="1">
          <mxGeometry x="430" y="485" width="190" height="110" as="geometry" />
        </mxCell>
        <mxCell id="awXcuc5pf5VlumgJA9pQ-18" value="- isCalibrated: boolean" style="text;strokeColor=none;fillColor=none;align=left;verticalAlign=top;spacingLeft=4;spacingRight=4;overflow=hidden;rotatable=0;points=[[0,0.5],[1,0.5]];portConstraint=eastwest;whiteSpace=wrap;html=1;" vertex="1" parent="awXcuc5pf5VlumgJA9pQ-17">
          <mxGeometry y="26" width="190" height="26" as="geometry" />
        </mxCell>
        <mxCell id="awXcuc5pf5VlumgJA9pQ-19" value="" style="line;strokeWidth=1;fillColor=none;align=left;verticalAlign=middle;spacingTop=-1;spacingLeft=3;spacingRight=3;rotatable=0;labelPosition=right;points=[];portConstraint=eastwest;strokeColor=inherit;" vertex="1" parent="awXcuc5pf5VlumgJA9pQ-17">
          <mxGeometry y="52" width="190" height="8" as="geometry" />
        </mxCell>
        <mxCell id="awXcuc5pf5VlumgJA9pQ-20" value="+ calibrate(): void&lt;div&gt;+ needsRecalibration(): boolean&lt;/div&gt;" style="text;strokeColor=none;fillColor=none;align=left;verticalAlign=top;spacingLeft=4;spacingRight=4;overflow=hidden;rotatable=0;points=[[0,0.5],[1,0.5]];portConstraint=eastwest;whiteSpace=wrap;html=1;" vertex="1" parent="awXcuc5pf5VlumgJA9pQ-17">
          <mxGeometry y="60" width="190" height="50" as="geometry" />
        </mxCell>
        <mxCell id="awXcuc5pf5VlumgJA9pQ-21" value="BatteryStateController" style="swimlane;fontStyle=1;align=center;verticalAlign=top;childLayout=stackLayout;horizontal=1;startSize=26;horizontalStack=0;resizeParent=1;resizeParentMax=0;resizeLast=0;collapsible=1;marginBottom=0;whiteSpace=wrap;html=1;" vertex="1" parent="1">
          <mxGeometry x="670" y="480" width="290" height="130" as="geometry" />
        </mxCell>
        <mxCell id="awXcuc5pf5VlumgJA9pQ-22" value="- batteryVoltage: double" style="text;strokeColor=none;fillColor=none;align=left;verticalAlign=top;spacingLeft=4;spacingRight=4;overflow=hidden;rotatable=0;points=[[0,0.5],[1,0.5]];portConstraint=eastwest;whiteSpace=wrap;html=1;" vertex="1" parent="awXcuc5pf5VlumgJA9pQ-21">
          <mxGeometry y="26" width="290" height="26" as="geometry" />
        </mxCell>
        <mxCell id="awXcuc5pf5VlumgJA9pQ-23" value="" style="line;strokeWidth=1;fillColor=none;align=left;verticalAlign=middle;spacingTop=-1;spacingLeft=3;spacingRight=3;rotatable=0;labelPosition=right;points=[];portConstraint=eastwest;strokeColor=inherit;" vertex="1" parent="awXcuc5pf5VlumgJA9pQ-21">
          <mxGeometry y="52" width="290" height="8" as="geometry" />
        </mxCell>
        <mxCell id="awXcuc5pf5VlumgJA9pQ-24" value="+ calculateBatteryPercentage(voltage: double): int&lt;div&gt;+ updateVoltage(newVoltage: double): void&lt;/div&gt;&lt;div&gt;+ isLowBattery(): boolean&lt;/div&gt;&lt;div&gt;+ estimateRemainingTime(): int&lt;/div&gt;" style="text;strokeColor=none;fillColor=none;align=left;verticalAlign=top;spacingLeft=4;spacingRight=4;overflow=hidden;rotatable=0;points=[[0,0.5],[1,0.5]];portConstraint=eastwest;whiteSpace=wrap;html=1;" vertex="1" parent="awXcuc5pf5VlumgJA9pQ-21">
          <mxGeometry y="60" width="290" height="70" as="geometry" />
        </mxCell>
        <mxCell id="awXcuc5pf5VlumgJA9pQ-25" value="VoltageSensor" style="swimlane;fontStyle=1;align=center;verticalAlign=top;childLayout=stackLayout;horizontal=1;startSize=26;horizontalStack=0;resizeParent=1;resizeParentMax=0;resizeLast=0;collapsible=1;marginBottom=0;whiteSpace=wrap;html=1;" vertex="1" parent="1">
          <mxGeometry x="200" y="899" width="160" height="86" as="geometry" />
        </mxCell>
        <mxCell id="awXcuc5pf5VlumgJA9pQ-26" value="- currentVoltage: double" style="text;strokeColor=none;fillColor=none;align=left;verticalAlign=top;spacingLeft=4;spacingRight=4;overflow=hidden;rotatable=0;points=[[0,0.5],[1,0.5]];portConstraint=eastwest;whiteSpace=wrap;html=1;" vertex="1" parent="awXcuc5pf5VlumgJA9pQ-25">
          <mxGeometry y="26" width="160" height="26" as="geometry" />
        </mxCell>
        <mxCell id="awXcuc5pf5VlumgJA9pQ-27" value="" style="line;strokeWidth=1;fillColor=none;align=left;verticalAlign=middle;spacingTop=-1;spacingLeft=3;spacingRight=3;rotatable=0;labelPosition=right;points=[];portConstraint=eastwest;strokeColor=inherit;" vertex="1" parent="awXcuc5pf5VlumgJA9pQ-25">
          <mxGeometry y="52" width="160" height="8" as="geometry" />
        </mxCell>
        <mxCell id="awXcuc5pf5VlumgJA9pQ-28" value="+ readVoltage():double" style="text;strokeColor=none;fillColor=none;align=left;verticalAlign=top;spacingLeft=4;spacingRight=4;overflow=hidden;rotatable=0;points=[[0,0.5],[1,0.5]];portConstraint=eastwest;whiteSpace=wrap;html=1;" vertex="1" parent="awXcuc5pf5VlumgJA9pQ-25">
          <mxGeometry y="60" width="160" height="26" as="geometry" />
        </mxCell>
        <mxCell id="awXcuc5pf5VlumgJA9pQ-29" value="ButtonInput" style="swimlane;fontStyle=1;align=center;verticalAlign=top;childLayout=stackLayout;horizontal=1;startSize=26;horizontalStack=0;resizeParent=1;resizeParentMax=0;resizeLast=0;collapsible=1;marginBottom=0;whiteSpace=wrap;html=1;" vertex="1" parent="1">
          <mxGeometry x="470" y="872" width="160" height="140" as="geometry" />
        </mxCell>
        <mxCell id="awXcuc5pf5VlumgJA9pQ-30" value="- lastPressTimestamp: long&lt;div&gt;- isPressed: boolean&lt;/div&gt;&lt;div&gt;- timePressed: int&lt;/div&gt;" style="text;strokeColor=none;fillColor=none;align=left;verticalAlign=top;spacingLeft=4;spacingRight=4;overflow=hidden;rotatable=0;points=[[0,0.5],[1,0.5]];portConstraint=eastwest;whiteSpace=wrap;html=1;" vertex="1" parent="awXcuc5pf5VlumgJA9pQ-29">
          <mxGeometry y="26" width="160" height="54" as="geometry" />
        </mxCell>
        <mxCell id="awXcuc5pf5VlumgJA9pQ-31" value="" style="line;strokeWidth=1;fillColor=none;align=left;verticalAlign=middle;spacingTop=-1;spacingLeft=3;spacingRight=3;rotatable=0;labelPosition=right;points=[];portConstraint=eastwest;strokeColor=inherit;" vertex="1" parent="awXcuc5pf5VlumgJA9pQ-29">
          <mxGeometry y="80" width="160" height="8" as="geometry" />
        </mxCell>
        <mxCell id="awXcuc5pf5VlumgJA9pQ-32" value="+ isShortPress(): boolean&lt;div&gt;+ isLongPress(): boolean&lt;/div&gt;" style="text;strokeColor=none;fillColor=none;align=left;verticalAlign=top;spacingLeft=4;spacingRight=4;overflow=hidden;rotatable=0;points=[[0,0.5],[1,0.5]];portConstraint=eastwest;whiteSpace=wrap;html=1;" vertex="1" parent="awXcuc5pf5VlumgJA9pQ-29">
          <mxGeometry y="88" width="160" height="52" as="geometry" />
        </mxCell>
        <mxCell id="awXcuc5pf5VlumgJA9pQ-33" value="DisplayDriver" style="swimlane;fontStyle=1;align=center;verticalAlign=top;childLayout=stackLayout;horizontal=1;startSize=26;horizontalStack=0;resizeParent=1;resizeParentMax=0;resizeLast=0;collapsible=1;marginBottom=0;whiteSpace=wrap;html=1;" vertex="1" parent="1">
          <mxGeometry x="720" y="872" width="255" height="150" as="geometry" />
        </mxCell>
        <mxCell id="awXcuc5pf5VlumgJA9pQ-34" value="- brightnessLevel: int&lt;div&gt;- isOn: boolean&lt;/div&gt;" style="text;strokeColor=none;fillColor=none;align=left;verticalAlign=top;spacingLeft=4;spacingRight=4;overflow=hidden;rotatable=0;points=[[0,0.5],[1,0.5]];portConstraint=eastwest;whiteSpace=wrap;html=1;" vertex="1" parent="awXcuc5pf5VlumgJA9pQ-33">
          <mxGeometry y="26" width="255" height="44" as="geometry" />
        </mxCell>
        <mxCell id="awXcuc5pf5VlumgJA9pQ-35" value="" style="line;strokeWidth=1;fillColor=none;align=left;verticalAlign=middle;spacingTop=-1;spacingLeft=3;spacingRight=3;rotatable=0;labelPosition=right;points=[];portConstraint=eastwest;strokeColor=inherit;" vertex="1" parent="awXcuc5pf5VlumgJA9pQ-33">
          <mxGeometry y="70" width="255" height="8" as="geometry" />
        </mxCell>
        <mxCell id="awXcuc5pf5VlumgJA9pQ-36" value="+ getBatteryPercentage(percentage: int): int&lt;div&gt;+ getRemainingTime(minutes: int): int&lt;/div&gt;&lt;div&gt;+ getWarning(message: String): String&lt;/div&gt;&lt;div&gt;+ clearDisplay(): boolean&lt;/div&gt;" style="text;strokeColor=none;fillColor=none;align=left;verticalAlign=top;spacingLeft=4;spacingRight=4;overflow=hidden;rotatable=0;points=[[0,0.5],[1,0.5]];portConstraint=eastwest;whiteSpace=wrap;html=1;" vertex="1" parent="awXcuc5pf5VlumgJA9pQ-33">
          <mxGeometry y="78" width="255" height="72" as="geometry" />
        </mxCell>
        <mxCell id="awXcuc5pf5VlumgJA9pQ-37" value="SettingsStorage" style="swimlane;fontStyle=1;align=center;verticalAlign=top;childLayout=stackLayout;horizontal=1;startSize=26;horizontalStack=0;resizeParent=1;resizeParentMax=0;resizeLast=0;collapsible=1;marginBottom=0;whiteSpace=wrap;html=1;" vertex="1" parent="1">
          <mxGeometry x="460" y="1300" width="180" height="160" as="geometry" />
        </mxCell>
        <mxCell id="awXcuc5pf5VlumgJA9pQ-38" value="- lowBatteryThreshold: int&lt;div&gt;- calibVoltageToSoC: dict&lt;/div&gt;&lt;div&gt;- calibSoCToTime: dict&lt;/div&gt;&lt;div&gt;- numberRecalibrations: int&lt;/div&gt;" style="text;strokeColor=none;fillColor=none;align=left;verticalAlign=top;spacingLeft=4;spacingRight=4;overflow=hidden;rotatable=0;points=[[0,0.5],[1,0.5]];portConstraint=eastwest;whiteSpace=wrap;html=1;" vertex="1" parent="awXcuc5pf5VlumgJA9pQ-37">
          <mxGeometry y="26" width="180" height="74" as="geometry" />
        </mxCell>
        <mxCell id="awXcuc5pf5VlumgJA9pQ-39" value="" style="line;strokeWidth=1;fillColor=none;align=left;verticalAlign=middle;spacingTop=-1;spacingLeft=3;spacingRight=3;rotatable=0;labelPosition=right;points=[];portConstraint=eastwest;strokeColor=inherit;" vertex="1" parent="awXcuc5pf5VlumgJA9pQ-37">
          <mxGeometry y="100" width="180" height="8" as="geometry" />
        </mxCell>
        <mxCell id="awXcuc5pf5VlumgJA9pQ-40" value="+ saveSettings(): void&lt;div&gt;+ loadSettings(): void&lt;/div&gt;&lt;div&gt;+ getWarningThreshold(): int&lt;/div&gt;" style="text;strokeColor=none;fillColor=none;align=left;verticalAlign=top;spacingLeft=4;spacingRight=4;overflow=hidden;rotatable=0;points=[[0,0.5],[1,0.5]];portConstraint=eastwest;whiteSpace=wrap;html=1;" vertex="1" parent="awXcuc5pf5VlumgJA9pQ-37">
          <mxGeometry y="108" width="180" height="52" as="geometry" />
        </mxCell>
      </root>
    </mxGraphModel>
  </diagram>
</mxfile>
